<mxfile host="app.diagrams.net" modified="2024-01-25T06:42:13.681Z" agent="Mozilla/5.0 (Windows NT 10.0; Win64; x64) AppleWebKit/537.36 (KHTML, like Gecko) Chrome/120.0.0.0 Safari/537.36" etag="3aOvHbqcvCw8VokYvLH4" version="22.1.16" type="github">
  <diagram id="R2lEEEUBdFMjLlhIrx00" name="Page-1">
    <mxGraphModel dx="1050" dy="530" grid="1" gridSize="10" guides="1" tooltips="1" connect="1" arrows="1" fold="1" page="1" pageScale="1" pageWidth="850" pageHeight="1100" math="0" shadow="0" extFonts="Permanent Marker^https://fonts.googleapis.com/css?family=Permanent+Marker">
      <root>
        <mxCell id="0" />
        <mxCell id="1" parent="0" />
        <mxCell id="4D774QBvuJ09kpPzTZ7x-10" style="rounded=0;orthogonalLoop=1;jettySize=auto;html=1;entryX=1;entryY=0.5;entryDx=0;entryDy=0;endArrow=ERone;endFill=0;fontSize=14;" edge="1" parent="1" source="4D774QBvuJ09kpPzTZ7x-1" target="4D774QBvuJ09kpPzTZ7x-6">
          <mxGeometry relative="1" as="geometry" />
        </mxCell>
        <mxCell id="4D774QBvuJ09kpPzTZ7x-11" style="rounded=0;orthogonalLoop=1;jettySize=auto;html=1;exitX=0;exitY=0;exitDx=0;exitDy=0;entryX=0.5;entryY=1;entryDx=0;entryDy=0;endArrow=ERone;endFill=0;fontSize=14;" edge="1" parent="1" source="4D774QBvuJ09kpPzTZ7x-1" target="4D774QBvuJ09kpPzTZ7x-7">
          <mxGeometry relative="1" as="geometry" />
        </mxCell>
        <mxCell id="4D774QBvuJ09kpPzTZ7x-12" style="rounded=0;orthogonalLoop=1;jettySize=auto;html=1;exitX=0.5;exitY=0;exitDx=0;exitDy=0;entryX=0.5;entryY=1;entryDx=0;entryDy=0;endArrow=ERone;endFill=0;fontSize=14;" edge="1" parent="1" source="4D774QBvuJ09kpPzTZ7x-1" target="4D774QBvuJ09kpPzTZ7x-8">
          <mxGeometry relative="1" as="geometry" />
        </mxCell>
        <mxCell id="4D774QBvuJ09kpPzTZ7x-13" style="rounded=0;orthogonalLoop=1;jettySize=auto;html=1;exitX=1;exitY=0;exitDx=0;exitDy=0;entryX=0.5;entryY=1;entryDx=0;entryDy=0;endArrow=ERone;endFill=0;fontSize=14;" edge="1" parent="1" source="4D774QBvuJ09kpPzTZ7x-1" target="4D774QBvuJ09kpPzTZ7x-9">
          <mxGeometry relative="1" as="geometry" />
        </mxCell>
        <mxCell id="4D774QBvuJ09kpPzTZ7x-24" style="rounded=0;orthogonalLoop=1;jettySize=auto;html=1;exitX=1;exitY=0.25;exitDx=0;exitDy=0;entryX=0;entryY=0.5;entryDx=0;entryDy=0;endArrow=ERone;endFill=0;fontSize=14;" edge="1" parent="1" source="4D774QBvuJ09kpPzTZ7x-1" target="4D774QBvuJ09kpPzTZ7x-23">
          <mxGeometry relative="1" as="geometry" />
        </mxCell>
        <mxCell id="4D774QBvuJ09kpPzTZ7x-76" style="shape=connector;rounded=0;orthogonalLoop=1;jettySize=auto;html=1;exitX=0.5;exitY=1;exitDx=0;exitDy=0;entryX=0.5;entryY=0;entryDx=0;entryDy=0;labelBackgroundColor=default;strokeColor=default;align=center;verticalAlign=middle;fontFamily=Helvetica;fontSize=11;fontColor=default;endArrow=baseDash;endFill=0;" edge="1" parent="1" source="4D774QBvuJ09kpPzTZ7x-1" target="4D774QBvuJ09kpPzTZ7x-75">
          <mxGeometry relative="1" as="geometry" />
        </mxCell>
        <mxCell id="4D774QBvuJ09kpPzTZ7x-1" value="customer" style="whiteSpace=wrap;html=1;align=center;spacing=2;fontSize=14;" vertex="1" parent="1">
          <mxGeometry x="160" y="160" width="100" height="40" as="geometry" />
        </mxCell>
        <mxCell id="4D774QBvuJ09kpPzTZ7x-17" style="rounded=0;orthogonalLoop=1;jettySize=auto;html=1;endArrow=baseDash;endFill=0;fontSize=14;" edge="1" parent="1" source="4D774QBvuJ09kpPzTZ7x-2" target="4D774QBvuJ09kpPzTZ7x-14">
          <mxGeometry relative="1" as="geometry" />
        </mxCell>
        <mxCell id="4D774QBvuJ09kpPzTZ7x-19" style="rounded=0;orthogonalLoop=1;jettySize=auto;html=1;exitX=0;exitY=0;exitDx=0;exitDy=0;entryX=0.5;entryY=1;entryDx=0;entryDy=0;endArrow=baseDash;endFill=0;fontSize=14;" edge="1" parent="1" source="4D774QBvuJ09kpPzTZ7x-2" target="4D774QBvuJ09kpPzTZ7x-18">
          <mxGeometry relative="1" as="geometry" />
        </mxCell>
        <mxCell id="4D774QBvuJ09kpPzTZ7x-27" style="rounded=0;orthogonalLoop=1;jettySize=auto;html=1;exitX=1;exitY=0;exitDx=0;exitDy=0;endArrow=baseDash;endFill=0;fontSize=14;" edge="1" parent="1" source="4D774QBvuJ09kpPzTZ7x-2" target="4D774QBvuJ09kpPzTZ7x-22">
          <mxGeometry relative="1" as="geometry" />
        </mxCell>
        <mxCell id="4D774QBvuJ09kpPzTZ7x-28" style="rounded=0;orthogonalLoop=1;jettySize=auto;html=1;exitX=1;exitY=0.5;exitDx=0;exitDy=0;entryX=0;entryY=0.5;entryDx=0;entryDy=0;endArrow=baseDash;endFill=0;fontSize=14;" edge="1" parent="1" source="4D774QBvuJ09kpPzTZ7x-2" target="4D774QBvuJ09kpPzTZ7x-25">
          <mxGeometry relative="1" as="geometry" />
        </mxCell>
        <mxCell id="4D774QBvuJ09kpPzTZ7x-31" style="rounded=0;orthogonalLoop=1;jettySize=auto;html=1;exitX=0.5;exitY=0;exitDx=0;exitDy=0;entryX=0.5;entryY=1;entryDx=0;entryDy=0;endArrow=baseDash;endFill=0;fontSize=14;" edge="1" parent="1" source="4D774QBvuJ09kpPzTZ7x-2" target="4D774QBvuJ09kpPzTZ7x-20">
          <mxGeometry relative="1" as="geometry" />
        </mxCell>
        <mxCell id="4D774QBvuJ09kpPzTZ7x-77" style="shape=connector;rounded=0;orthogonalLoop=1;jettySize=auto;html=1;exitX=0.5;exitY=1;exitDx=0;exitDy=0;entryX=0.5;entryY=0;entryDx=0;entryDy=0;labelBackgroundColor=default;strokeColor=default;align=center;verticalAlign=middle;fontFamily=Helvetica;fontSize=11;fontColor=default;endArrow=baseDash;endFill=0;" edge="1" parent="1" source="4D774QBvuJ09kpPzTZ7x-2" target="4D774QBvuJ09kpPzTZ7x-74">
          <mxGeometry relative="1" as="geometry" />
        </mxCell>
        <mxCell id="4D774QBvuJ09kpPzTZ7x-2" value="seller" style="whiteSpace=wrap;html=1;align=center;spacing=2;fontSize=14;" vertex="1" parent="1">
          <mxGeometry x="600" y="160" width="100" height="40" as="geometry" />
        </mxCell>
        <mxCell id="4D774QBvuJ09kpPzTZ7x-35" style="rounded=0;orthogonalLoop=1;jettySize=auto;html=1;entryX=0.5;entryY=1;entryDx=0;entryDy=0;endArrow=baseDash;endFill=0;fontSize=14;exitX=0;exitY=1;exitDx=0;exitDy=0;" edge="1" parent="1" source="4D774QBvuJ09kpPzTZ7x-3" target="4D774QBvuJ09kpPzTZ7x-32">
          <mxGeometry relative="1" as="geometry">
            <mxPoint x="645" y="450" as="sourcePoint" />
          </mxGeometry>
        </mxCell>
        <mxCell id="4D774QBvuJ09kpPzTZ7x-36" style="rounded=0;orthogonalLoop=1;jettySize=auto;html=1;exitX=0.5;exitY=1;exitDx=0;exitDy=0;entryX=0.5;entryY=1;entryDx=0;entryDy=0;endArrow=baseDash;endFill=0;fontSize=14;" edge="1" parent="1" source="4D774QBvuJ09kpPzTZ7x-3" target="4D774QBvuJ09kpPzTZ7x-33">
          <mxGeometry relative="1" as="geometry" />
        </mxCell>
        <mxCell id="4D774QBvuJ09kpPzTZ7x-37" style="rounded=0;orthogonalLoop=1;jettySize=auto;html=1;endArrow=baseDash;endFill=0;fontSize=14;exitX=1;exitY=1;exitDx=0;exitDy=0;" edge="1" parent="1" source="4D774QBvuJ09kpPzTZ7x-3" target="4D774QBvuJ09kpPzTZ7x-34">
          <mxGeometry relative="1" as="geometry">
            <mxPoint x="720" y="490" as="sourcePoint" />
          </mxGeometry>
        </mxCell>
        <mxCell id="4D774QBvuJ09kpPzTZ7x-54" style="shape=connector;rounded=0;orthogonalLoop=1;jettySize=auto;html=1;exitX=0;exitY=0.5;exitDx=0;exitDy=0;entryX=1;entryY=0.5;entryDx=0;entryDy=0;labelBackgroundColor=default;strokeColor=default;align=center;verticalAlign=middle;fontFamily=Helvetica;fontSize=14;fontColor=default;endArrow=baseDash;endFill=0;" edge="1" parent="1" source="4D774QBvuJ09kpPzTZ7x-3" target="4D774QBvuJ09kpPzTZ7x-52">
          <mxGeometry relative="1" as="geometry" />
        </mxCell>
        <mxCell id="4D774QBvuJ09kpPzTZ7x-3" value="category" style="whiteSpace=wrap;html=1;align=center;spacing=2;fontSize=14;" vertex="1" parent="1">
          <mxGeometry x="620" y="480" width="100" height="40" as="geometry" />
        </mxCell>
        <mxCell id="4D774QBvuJ09kpPzTZ7x-44" style="rounded=0;orthogonalLoop=1;jettySize=auto;html=1;exitX=0;exitY=0.5;exitDx=0;exitDy=0;entryX=1;entryY=0.5;entryDx=0;entryDy=0;endArrow=baseDash;endFill=0;fontSize=14;" edge="1" parent="1" source="4D774QBvuJ09kpPzTZ7x-4" target="4D774QBvuJ09kpPzTZ7x-39">
          <mxGeometry relative="1" as="geometry" />
        </mxCell>
        <mxCell id="4D774QBvuJ09kpPzTZ7x-45" style="rounded=0;orthogonalLoop=1;jettySize=auto;html=1;exitX=0;exitY=0;exitDx=0;exitDy=0;entryX=1;entryY=0.5;entryDx=0;entryDy=0;endArrow=baseDash;endFill=0;fontSize=14;" edge="1" parent="1" source="4D774QBvuJ09kpPzTZ7x-4" target="4D774QBvuJ09kpPzTZ7x-38">
          <mxGeometry relative="1" as="geometry" />
        </mxCell>
        <mxCell id="4D774QBvuJ09kpPzTZ7x-46" style="rounded=0;orthogonalLoop=1;jettySize=auto;html=1;exitX=0;exitY=1;exitDx=0;exitDy=0;endArrow=baseDash;endFill=0;fontSize=14;" edge="1" parent="1" source="4D774QBvuJ09kpPzTZ7x-4" target="4D774QBvuJ09kpPzTZ7x-40">
          <mxGeometry relative="1" as="geometry" />
        </mxCell>
        <mxCell id="4D774QBvuJ09kpPzTZ7x-48" style="rounded=0;orthogonalLoop=1;jettySize=auto;html=1;exitX=0.5;exitY=1;exitDx=0;exitDy=0;entryX=0.5;entryY=0;entryDx=0;entryDy=0;endArrow=baseDash;endFill=0;fontSize=14;" edge="1" parent="1" source="4D774QBvuJ09kpPzTZ7x-4" target="4D774QBvuJ09kpPzTZ7x-41">
          <mxGeometry relative="1" as="geometry" />
        </mxCell>
        <mxCell id="4D774QBvuJ09kpPzTZ7x-49" style="rounded=0;orthogonalLoop=1;jettySize=auto;html=1;exitX=1;exitY=1;exitDx=0;exitDy=0;entryX=0.5;entryY=0;entryDx=0;entryDy=0;endArrow=baseDash;endFill=0;fontSize=14;" edge="1" parent="1" source="4D774QBvuJ09kpPzTZ7x-4" target="4D774QBvuJ09kpPzTZ7x-42">
          <mxGeometry relative="1" as="geometry" />
        </mxCell>
        <mxCell id="4D774QBvuJ09kpPzTZ7x-50" style="shape=connector;rounded=0;orthogonalLoop=1;jettySize=auto;html=1;exitX=1;exitY=0.5;exitDx=0;exitDy=0;entryX=0;entryY=0.5;entryDx=0;entryDy=0;labelBackgroundColor=default;strokeColor=default;align=center;verticalAlign=middle;fontFamily=Helvetica;fontSize=14;fontColor=default;endArrow=baseDash;endFill=0;" edge="1" parent="1" source="4D774QBvuJ09kpPzTZ7x-4" target="4D774QBvuJ09kpPzTZ7x-43">
          <mxGeometry relative="1" as="geometry" />
        </mxCell>
        <mxCell id="4D774QBvuJ09kpPzTZ7x-53" style="shape=connector;rounded=0;orthogonalLoop=1;jettySize=auto;html=1;exitX=1;exitY=0;exitDx=0;exitDy=0;entryX=0;entryY=0.5;entryDx=0;entryDy=0;labelBackgroundColor=default;strokeColor=default;align=center;verticalAlign=middle;fontFamily=Helvetica;fontSize=14;fontColor=default;endArrow=baseDash;endFill=0;" edge="1" parent="1" source="4D774QBvuJ09kpPzTZ7x-4" target="4D774QBvuJ09kpPzTZ7x-52">
          <mxGeometry relative="1" as="geometry" />
        </mxCell>
        <mxCell id="4D774QBvuJ09kpPzTZ7x-4" value="Item" style="whiteSpace=wrap;html=1;align=center;spacing=2;fontSize=14;" vertex="1" parent="1">
          <mxGeometry x="155" y="500" width="100" height="40" as="geometry" />
        </mxCell>
        <mxCell id="4D774QBvuJ09kpPzTZ7x-6" value="&lt;u style=&quot;font-size: 14px;&quot;&gt;Id&lt;/u&gt;" style="ellipse;whiteSpace=wrap;html=1;align=center;fontSize=14;" vertex="1" parent="1">
          <mxGeometry x="10" y="130" width="100" height="40" as="geometry" />
        </mxCell>
        <mxCell id="4D774QBvuJ09kpPzTZ7x-7" value="email" style="ellipse;whiteSpace=wrap;html=1;align=center;fontSize=14;" vertex="1" parent="1">
          <mxGeometry x="50" y="70" width="100" height="40" as="geometry" />
        </mxCell>
        <mxCell id="4D774QBvuJ09kpPzTZ7x-8" value="Password" style="ellipse;whiteSpace=wrap;html=1;align=center;fontSize=14;" vertex="1" parent="1">
          <mxGeometry x="160" y="70" width="100" height="40" as="geometry" />
        </mxCell>
        <mxCell id="4D774QBvuJ09kpPzTZ7x-9" value="Name" style="ellipse;whiteSpace=wrap;html=1;align=center;fontSize=14;" vertex="1" parent="1">
          <mxGeometry x="270" y="70" width="100" height="40" as="geometry" />
        </mxCell>
        <mxCell id="4D774QBvuJ09kpPzTZ7x-14" value="&lt;u style=&quot;font-size: 14px;&quot;&gt;Id&lt;/u&gt;" style="ellipse;whiteSpace=wrap;html=1;align=center;fontSize=14;" vertex="1" parent="1">
          <mxGeometry x="480" y="160" width="100" height="40" as="geometry" />
        </mxCell>
        <mxCell id="4D774QBvuJ09kpPzTZ7x-18" value="email" style="ellipse;whiteSpace=wrap;html=1;align=center;fontSize=14;" vertex="1" parent="1">
          <mxGeometry x="490" y="90" width="100" height="40" as="geometry" />
        </mxCell>
        <mxCell id="4D774QBvuJ09kpPzTZ7x-20" value="password" style="ellipse;whiteSpace=wrap;html=1;align=center;fontSize=14;" vertex="1" parent="1">
          <mxGeometry x="600" y="90" width="100" height="40" as="geometry" />
        </mxCell>
        <mxCell id="4D774QBvuJ09kpPzTZ7x-22" value="Name" style="ellipse;whiteSpace=wrap;html=1;align=center;fontSize=14;" vertex="1" parent="1">
          <mxGeometry x="710" y="90" width="100" height="40" as="geometry" />
        </mxCell>
        <mxCell id="4D774QBvuJ09kpPzTZ7x-23" value="Image" style="ellipse;whiteSpace=wrap;html=1;align=center;fontSize=14;" vertex="1" parent="1">
          <mxGeometry x="330" y="120" width="100" height="40" as="geometry" />
        </mxCell>
        <mxCell id="4D774QBvuJ09kpPzTZ7x-25" value="image" style="ellipse;whiteSpace=wrap;html=1;align=center;fontSize=14;" vertex="1" parent="1">
          <mxGeometry x="730" y="160" width="100" height="40" as="geometry" />
        </mxCell>
        <mxCell id="4D774QBvuJ09kpPzTZ7x-32" value="&lt;u style=&quot;font-size: 14px;&quot;&gt;id&lt;/u&gt;" style="ellipse;whiteSpace=wrap;html=1;align=center;fontSize=14;" vertex="1" parent="1">
          <mxGeometry x="510" y="550" width="100" height="40" as="geometry" />
        </mxCell>
        <mxCell id="4D774QBvuJ09kpPzTZ7x-33" value="&lt;span style=&quot;font-size: 14px;&quot;&gt;&lt;u style=&quot;font-size: 14px;&quot;&gt;Name&lt;/u&gt;&lt;/span&gt;" style="ellipse;whiteSpace=wrap;html=1;align=center;fontSize=14;" vertex="1" parent="1">
          <mxGeometry x="620" y="550" width="100" height="40" as="geometry" />
        </mxCell>
        <mxCell id="4D774QBvuJ09kpPzTZ7x-34" value="&lt;span style=&quot;font-size: 14px;&quot;&gt;image&lt;/span&gt;" style="ellipse;whiteSpace=wrap;html=1;align=center;fontSize=14;" vertex="1" parent="1">
          <mxGeometry x="730" y="550" width="100" height="40" as="geometry" />
        </mxCell>
        <mxCell id="4D774QBvuJ09kpPzTZ7x-38" value="&lt;u style=&quot;font-size: 14px;&quot;&gt;&lt;font style=&quot;font-size: 14px;&quot;&gt;id&lt;/font&gt;&lt;/u&gt;" style="ellipse;whiteSpace=wrap;html=1;align=center;fontSize=14;" vertex="1" parent="1">
          <mxGeometry x="25" y="440" width="100" height="40" as="geometry" />
        </mxCell>
        <mxCell id="4D774QBvuJ09kpPzTZ7x-39" value="&lt;span style=&quot;font-size: 14px;&quot;&gt;Name&lt;/span&gt;" style="ellipse;whiteSpace=wrap;html=1;align=center;fontSize=14;" vertex="1" parent="1">
          <mxGeometry x="25" y="500" width="100" height="40" as="geometry" />
        </mxCell>
        <mxCell id="4D774QBvuJ09kpPzTZ7x-40" value="&lt;span style=&quot;font-size: 14px;&quot;&gt;image&lt;/span&gt;" style="ellipse;whiteSpace=wrap;html=1;align=center;fontSize=14;" vertex="1" parent="1">
          <mxGeometry x="25" y="570" width="100" height="40" as="geometry" />
        </mxCell>
        <mxCell id="4D774QBvuJ09kpPzTZ7x-41" value="&lt;span style=&quot;font-size: 14px;&quot;&gt;price&lt;/span&gt;" style="ellipse;whiteSpace=wrap;html=1;align=center;fontSize=14;" vertex="1" parent="1">
          <mxGeometry x="135" y="580" width="100" height="40" as="geometry" />
        </mxCell>
        <mxCell id="4D774QBvuJ09kpPzTZ7x-42" value="&lt;span style=&quot;font-size: 14px;&quot;&gt;quantity&lt;/span&gt;" style="ellipse;whiteSpace=wrap;html=1;align=center;fontSize=14;" vertex="1" parent="1">
          <mxGeometry x="245" y="580" width="100" height="40" as="geometry" />
        </mxCell>
        <mxCell id="4D774QBvuJ09kpPzTZ7x-43" value="&lt;span style=&quot;font-size: 14px;&quot;&gt;rating&lt;/span&gt;" style="ellipse;whiteSpace=wrap;html=1;align=center;fontSize=14;" vertex="1" parent="1">
          <mxGeometry x="295" y="520" width="100" height="40" as="geometry" />
        </mxCell>
        <mxCell id="4D774QBvuJ09kpPzTZ7x-52" value="Exist in" style="shape=rhombus;perimeter=rhombusPerimeter;whiteSpace=wrap;html=1;align=center;fontFamily=Helvetica;fontSize=14;fontColor=default;" vertex="1" parent="1">
          <mxGeometry x="390" y="470" width="120" height="60" as="geometry" />
        </mxCell>
        <mxCell id="4D774QBvuJ09kpPzTZ7x-71" style="shape=connector;rounded=0;orthogonalLoop=1;jettySize=auto;html=1;exitX=1;exitY=0;exitDx=0;exitDy=0;entryX=0.5;entryY=1;entryDx=0;entryDy=0;labelBackgroundColor=default;strokeColor=default;align=center;verticalAlign=middle;fontFamily=Helvetica;fontSize=11;fontColor=default;endArrow=baseDash;endFill=0;" edge="1" parent="1" source="4D774QBvuJ09kpPzTZ7x-65" target="4D774QBvuJ09kpPzTZ7x-70">
          <mxGeometry relative="1" as="geometry" />
        </mxCell>
        <mxCell id="4D774QBvuJ09kpPzTZ7x-72" style="shape=connector;rounded=0;orthogonalLoop=1;jettySize=auto;html=1;exitX=0.5;exitY=0;exitDx=0;exitDy=0;entryX=0.5;entryY=1;entryDx=0;entryDy=0;labelBackgroundColor=default;strokeColor=default;align=center;verticalAlign=middle;fontFamily=Helvetica;fontSize=11;fontColor=default;endArrow=baseDash;endFill=0;" edge="1" parent="1" source="4D774QBvuJ09kpPzTZ7x-65" target="4D774QBvuJ09kpPzTZ7x-68">
          <mxGeometry relative="1" as="geometry" />
        </mxCell>
        <mxCell id="4D774QBvuJ09kpPzTZ7x-73" style="shape=connector;rounded=0;orthogonalLoop=1;jettySize=auto;html=1;exitX=0;exitY=0;exitDx=0;exitDy=0;entryX=0.5;entryY=1;entryDx=0;entryDy=0;labelBackgroundColor=default;strokeColor=default;align=center;verticalAlign=middle;fontFamily=Helvetica;fontSize=11;fontColor=default;endArrow=baseDash;endFill=0;" edge="1" parent="1" source="4D774QBvuJ09kpPzTZ7x-65" target="4D774QBvuJ09kpPzTZ7x-66">
          <mxGeometry relative="1" as="geometry" />
        </mxCell>
        <mxCell id="4D774QBvuJ09kpPzTZ7x-80" style="shape=connector;rounded=0;orthogonalLoop=1;jettySize=auto;html=1;exitX=0;exitY=1;exitDx=0;exitDy=0;entryX=0.5;entryY=0;entryDx=0;entryDy=0;labelBackgroundColor=default;strokeColor=default;align=center;verticalAlign=middle;fontFamily=Helvetica;fontSize=11;fontColor=default;endArrow=baseDash;endFill=0;" edge="1" parent="1" source="4D774QBvuJ09kpPzTZ7x-65" target="4D774QBvuJ09kpPzTZ7x-4">
          <mxGeometry relative="1" as="geometry" />
        </mxCell>
        <mxCell id="4D774QBvuJ09kpPzTZ7x-65" value="&lt;font style=&quot;font-size: 14px;&quot;&gt;Order&lt;/font&gt;" style="whiteSpace=wrap;html=1;align=center;fontFamily=Helvetica;fontSize=11;fontColor=default;" vertex="1" parent="1">
          <mxGeometry x="380" y="340" width="100" height="40" as="geometry" />
        </mxCell>
        <mxCell id="4D774QBvuJ09kpPzTZ7x-66" value="&lt;font style=&quot;font-size: 14px;&quot;&gt;&lt;u&gt;Order id&lt;/u&gt;&lt;/font&gt;" style="ellipse;whiteSpace=wrap;html=1;align=center;fontFamily=Helvetica;fontSize=11;fontColor=default;" vertex="1" parent="1">
          <mxGeometry x="270" y="270" width="100" height="40" as="geometry" />
        </mxCell>
        <mxCell id="4D774QBvuJ09kpPzTZ7x-68" value="&lt;font style=&quot;font-size: 14px;&quot;&gt;items&lt;/font&gt;" style="ellipse;shape=doubleEllipse;margin=3;whiteSpace=wrap;html=1;align=center;fontFamily=Helvetica;fontSize=11;fontColor=default;" vertex="1" parent="1">
          <mxGeometry x="380" y="250" width="100" height="40" as="geometry" />
        </mxCell>
        <mxCell id="4D774QBvuJ09kpPzTZ7x-70" value="&lt;font size=&quot;3&quot;&gt;total price&lt;/font&gt;" style="ellipse;whiteSpace=wrap;html=1;align=center;dashed=1;fontFamily=Helvetica;fontSize=11;fontColor=default;" vertex="1" parent="1">
          <mxGeometry x="480" y="280" width="100" height="40" as="geometry" />
        </mxCell>
        <mxCell id="4D774QBvuJ09kpPzTZ7x-79" style="shape=connector;rounded=0;orthogonalLoop=1;jettySize=auto;html=1;exitX=0;exitY=0.5;exitDx=0;exitDy=0;entryX=1;entryY=0.5;entryDx=0;entryDy=0;labelBackgroundColor=default;strokeColor=default;align=center;verticalAlign=middle;fontFamily=Helvetica;fontSize=11;fontColor=default;endArrow=baseDash;endFill=0;" edge="1" parent="1" source="4D774QBvuJ09kpPzTZ7x-74" target="4D774QBvuJ09kpPzTZ7x-65">
          <mxGeometry relative="1" as="geometry" />
        </mxCell>
        <mxCell id="4D774QBvuJ09kpPzTZ7x-74" value="&lt;font style=&quot;font-size: 14px;&quot;&gt;sell&lt;/font&gt;" style="shape=rhombus;perimeter=rhombusPerimeter;whiteSpace=wrap;html=1;align=center;fontFamily=Helvetica;fontSize=11;fontColor=default;" vertex="1" parent="1">
          <mxGeometry x="590" y="330" width="120" height="60" as="geometry" />
        </mxCell>
        <mxCell id="4D774QBvuJ09kpPzTZ7x-78" style="shape=connector;rounded=0;orthogonalLoop=1;jettySize=auto;html=1;exitX=1;exitY=0.5;exitDx=0;exitDy=0;entryX=0;entryY=0.5;entryDx=0;entryDy=0;labelBackgroundColor=default;strokeColor=default;align=center;verticalAlign=middle;fontFamily=Helvetica;fontSize=11;fontColor=default;endArrow=baseDash;endFill=0;" edge="1" parent="1" source="4D774QBvuJ09kpPzTZ7x-75" target="4D774QBvuJ09kpPzTZ7x-65">
          <mxGeometry relative="1" as="geometry" />
        </mxCell>
        <mxCell id="4D774QBvuJ09kpPzTZ7x-75" value="&lt;font style=&quot;font-size: 14px;&quot;&gt;Buy&lt;/font&gt;" style="shape=rhombus;perimeter=rhombusPerimeter;whiteSpace=wrap;html=1;align=center;fontFamily=Helvetica;fontSize=11;fontColor=default;" vertex="1" parent="1">
          <mxGeometry x="150" y="330" width="120" height="60" as="geometry" />
        </mxCell>
      </root>
    </mxGraphModel>
  </diagram>
</mxfile>
